  0
SECTION
  2
HEADER
  9
$ACADVER
  1
AC1014
  9
$HANDSEED
  5
FFFF
  9
$MEASUREMENT
 70
     1
  0
ENDSEC
  0
SECTION
  2
TABLES
  0
TABLE
  2
VPORT
  5
8
330
0
100
AcDbSymbolTable
 70
     4
  0
VPORT
  5
2E
330
8
100
AcDbSymbolTableRecord
100
AcDbViewportTableRecord
  2
*ACTIVE
 70
     0
 10
0.0
 20
0.0
 11
1.0
 21
1.0
 12
210.0
 22
148.5
 13
0.0
 23
0.0
 14
10.0
 24
10.0
 15
10.0
 25
10.0
 16
0.0
 26
0.0
 36
1.0
 17
0.0
 27
0.0
 37
0.0
 40
341.0
 41
1.24
 42
50.0
 43
0.0
 44
0.0
 50
0.0
 51
0.0
 71
     0
 72
   100
 73
     1
 74
     3
 75
     0
 76
     0
 77
     0
 78
     0
  0
ENDTAB
  0
TABLE
  2
LTYPE
  5
5
330
0
100
AcDbSymbolTable
 70
     1
  0
LTYPE
  5
14
330
5
100
AcDbSymbolTableRecord
100
AcDbLinetypeTableRecord
  2
BYBLOCK
 70
     0
  3

 72
    65
 73
     0
 40
0.0
  0
LTYPE
  5
15
330
5
100
AcDbSymbolTableRecord
100
AcDbLinetypeTableRecord
  2
BYLAYER
 70
     0
  3

 72
    65
 73
     0
 40
0.0
  0
LTYPE
  5
16
330
5
100
AcDbSymbolTableRecord
100
AcDbLinetypeTableRecord
  2
CONTINUOUS
 70
     0
  3
Solid line
 72
    65
 73
     0
 40
0.0
  0
ENDTAB
  0
TABLE
  2
LAYER
  5
2
100
AcDbSymbolTable
 70
2
  0
LAYER
  5
50
100
AcDbSymbolTableRecord
100
AcDbLayerTableRecord
  2
0
 70
0
  6
CONTINUOUS
  0
LAYER
  5
51
100
AcDbSymbolTableRecord
100
AcDbLayerTableRecord
  2
Layer_1
 70
0
  6
CONTINUOUS
  0
ENDTAB
  0
TABLE
  2
STYLE
  5
3
330
0
100
AcDbSymbolTable
 70
     1
  0
STYLE
  5
11
330
3
100
AcDbSymbolTableRecord
100
AcDbTextStyleTableRecord
  2
STANDARD
 70
     0
 40
0.0
 41
1.0
 50
0.0
 71
     0
 42
2.5
  3
txt
  4

  0
ENDTAB
  0
TABLE
  2
VIEW
  5
6
330
0
100
AcDbSymbolTable
 70
     0
  0
ENDTAB
  0
TABLE
  2
UCS
  5
7
330
0
100
AcDbSymbolTable
 70
     0
  0
ENDTAB
  0
TABLE
  2
APPID
  5
9
330
0
100
AcDbSymbolTable
 70
     2
  0
APPID
  5
12
330
9
100
AcDbSymbolTableRecord
100
AcDbRegAppTableRecord
  2
ACAD
 70
     0
  0
ENDTAB
  0
TABLE
  2
DIMSTYLE
  5
A
330
0
100
AcDbSymbolTable
 70
     1
  0
DIMSTYLE
105
27
330
A
100
AcDbSymbolTableRecord
100
AcDbDimStyleTableRecord
  2
ISO-25
 70
     0
  3

  4

  5

  6

  7

 40
1.0
 41
2.5
 42
0.625
 43
3.75
 44
1.25
 45
0.0
 46
0.0
 47
0.0
 48
0.0
140
2.5
141
2.5
142
0.0
143
0.03937007874016
144
1.0
145
0.0
146
1.0
147
0.625
 71
     0
 72
     0
 73
     0
 74
     0
 75
     0
 76
     0
 77
     1
 78
     8
170
     0
171
     3
172
     1
173
     0
174
     0
175
     0
176
     0
177
     0
178
     0
270
     2
271
     2
272
     2
273
     2
274
     3
340
11
275
     0
280
     0
281
     0
282
     0
283
     0
284
     8
285
     0
286
     0
287
     3
288
     0
  0
ENDTAB
  0
TABLE
  2
BLOCK_RECORD
  5
1
330
0
100
AcDbSymbolTable
 70
     1
  0
BLOCK_RECORD
  5
1F
330
1
100
AcDbSymbolTableRecord
100
AcDbBlockTableRecord
  2
*MODEL_SPACE
  0
BLOCK_RECORD
  5
1B
330
1
100
AcDbSymbolTableRecord
100
AcDbBlockTableRecord
  2
*PAPER_SPACE
  0
ENDTAB
  0
ENDSEC
  0
SECTION
  2
BLOCKS
  0
BLOCK
  5
20
330
1F
100
AcDbEntity
  8
0
100
AcDbBlockBegin
  2
*MODEL_SPACE
 70
     0
 10
0.0
 20
0.0
 30
0.0
  3
*MODEL_SPACE
  1

  0
ENDBLK
  5
21
330
1F
100
AcDbEntity
  8
0
100
AcDbBlockEnd
  0
BLOCK
  5
1C
330
1B
100
AcDbEntity
 67
     1
  8
0
100
AcDbBlockBegin
  2
*PAPER_SPACE
  1

  0
ENDBLK
  5
1D
330
1B
100
AcDbEntity
 67
     1
  8
0
100
AcDbBlockEnd
  0
ENDSEC
  0
SECTION
  2
ENTITIES
  0
LWPOLYLINE
  5
100
100
AcDbEntity
  8
Layer_1
 62
7
100
AcDbPolyline
 90
5
 70
0
 10
47.106544
 20
158.855253
 30
0.0
 10
127.588521
 20
158.855253
 30
0.0
 10
127.588521
 20
153.813271
 30
0.0
 10
47.106544
 20
153.813271
 30
0.0
 10
47.106544
 20
158.855253
 30
0.0
  0
LWPOLYLINE
  5
101
100
AcDbEntity
  8
Layer_1
 62
7
100
AcDbPolyline
 90
2
 70
0
 10
29.382520
 20
182.182004
 30
0.0
 10
145.312545
 20
182.182004
 30
0.0
  0
SPLINE
  5
102
100
AcDbEntity
  8
Layer_1
 62
7
100
AcDbSpline
 70
0
 71
3
 72
10
 73
6
 74
4
 40
0.000000
 40
0.000000
 40
0.000000
 40
0.000000
 40
1.570488
 40
3.090924
 40
4.661411
 40
4.661411
 40
4.661411
 40
4.661411
 10
145.312545
 20
182.182004
 30
0.0
 10
145.839052
 20
182.100137
 30
0.0
 10
146.875287
 20
181.939011
 30
0.0
 10
148.069552
 20
180.744747
 30
0.0
 10
148.230677
 20
179.708511
 30
0.0
 10
148.312545
 20
179.182004
 30
0.0
 11
145.312545
 21
182.182004
 31
0.0
 11
146.828990
 21
181.773560
 31
0.0
 11
147.904100
 21
180.698449
 31
0.0
 11
148.312545
 21
179.182004
 31
0.0
  0
LWPOLYLINE
  5
103
100
AcDbEntity
  8
Layer_1
 62
7
100
AcDbPolyline
 90
2
 70
0
 10
148.312545
 20
179.182004
 30
0.0
 10
148.312545
 20
133.486524
 30
0.0
  0
SPLINE
  5
104
100
AcDbEntity
  8
Layer_1
 62
7
100
AcDbSpline
 70
0
 71
3
 72
10
 73
6
 74
4
 40
0.000000
 40
0.000000
 40
0.000000
 40
0.000000
 40
1.570486
 40
3.090923
 40
4.661411
 40
4.661411
 40
4.661411
 40
4.661411
 10
148.312545
 20
133.486524
 30
0.0
 10
148.230677
 20
132.960017
 30
0.0
 10
148.069552
 20
131.923782
 30
0.0
 10
146.875288
 20
130.729517
 30
0.0
 10
145.839052
 20
130.568391
 30
0.0
 10
145.312545
 20
130.486524
 30
0.0
 11
148.312545
 21
133.486524
 31
0.0
 11
147.904100
 21
131.970080
 31
0.0
 11
146.828990
 21
130.894969
 31
0.0
 11
145.312545
 21
130.486524
 31
0.0
  0
LWPOLYLINE
  5
105
100
AcDbEntity
  8
Layer_1
 62
7
100
AcDbPolyline
 90
2
 70
0
 10
145.312545
 20
130.486524
 30
0.0
 10
29.382520
 20
130.486524
 30
0.0
  0
SPLINE
  5
106
100
AcDbEntity
  8
Layer_1
 62
7
100
AcDbSpline
 70
0
 71
3
 72
10
 73
6
 74
4
 40
0.000000
 40
0.000000
 40
0.000000
 40
0.000000
 40
1.570487
 40
3.090924
 40
4.661411
 40
4.661411
 40
4.661411
 40
4.661411
 10
29.382520
 20
130.486524
 30
0.0
 10
28.856012
 20
130.568391
 30
0.0
 10
27.819777
 20
130.729517
 30
0.0
 10
26.625513
 20
131.923782
 30
0.0
 10
26.464387
 20
132.960017
 30
0.0
 10
26.382520
 20
133.486524
 30
0.0
 11
29.382520
 21
130.486524
 31
0.0
 11
27.866075
 21
130.894969
 31
0.0
 11
26.790964
 21
131.970080
 31
0.0
 11
26.382520
 21
133.486524
 31
0.0
  0
LWPOLYLINE
  5
107
100
AcDbEntity
  8
Layer_1
 62
7
100
AcDbPolyline
 90
2
 70
0
 10
26.382520
 20
133.486524
 30
0.0
 10
26.382520
 20
179.182004
 30
0.0
  0
LWPOLYLINE
  5
108
100
AcDbEntity
  8
Layer_1
 62
7
100
AcDbPolyline
 90
2
 70
0
 10
29.382520
 20
182.182004
 30
0.0
 10
29.382520
 20
182.182004
 30
0.0
  0
SPLINE
  5
109
100
AcDbEntity
  8
Layer_1
 62
7
100
AcDbSpline
 70
0
 71
3
 72
10
 73
6
 74
4
 40
0.000000
 40
0.000000
 40
0.000000
 40
0.000000
 40
1.570488
 40
3.090924
 40
4.661411
 40
4.661411
 40
4.661411
 40
4.661411
 10
26.382520
 20
179.182004
 30
0.0
 10
26.464387
 20
179.708511
 30
0.0
 10
26.625512
 20
180.744747
 30
0.0
 10
27.819777
 20
181.939011
 30
0.0
 10
28.856012
 20
182.100136
 30
0.0
 10
29.382520
 20
182.182004
 30
0.0
 11
26.382520
 21
179.182004
 31
0.0
 11
26.790964
 21
180.698449
 31
0.0
 11
27.866075
 21
181.773560
 31
0.0
 11
29.382520
 21
182.182004
 31
0.0
  0
LWPOLYLINE
  5
10a
100
AcDbEntity
  8
Layer_1
 62
7
100
AcDbPolyline
 90
2
 70
0
 10
29.382520
 20
126.301995
 30
0.0
 10
145.312545
 20
126.301995
 30
0.0
  0
SPLINE
  5
10b
100
AcDbEntity
  8
Layer_1
 62
7
100
AcDbSpline
 70
0
 71
3
 72
10
 73
6
 74
4
 40
0.000000
 40
0.000000
 40
0.000000
 40
0.000000
 40
1.570488
 40
3.090924
 40
4.661411
 40
4.661411
 40
4.661411
 40
4.661411
 10
145.312545
 20
126.301995
 30
0.0
 10
145.839052
 20
126.220128
 30
0.0
 10
146.875287
 20
126.059003
 30
0.0
 10
148.069552
 20
124.864738
 30
0.0
 10
148.230677
 20
123.828503
 30
0.0
 10
148.312545
 20
123.301996
 30
0.0
 11
145.312545
 21
126.301995
 31
0.0
 11
146.828990
 21
125.893551
 31
0.0
 11
147.904100
 21
124.818440
 31
0.0
 11
148.312545
 21
123.301996
 31
0.0
  0
LWPOLYLINE
  5
10c
100
AcDbEntity
  8
Layer_1
 62
7
100
AcDbPolyline
 90
2
 70
0
 10
148.312545
 20
123.301996
 30
0.0
 10
148.312545
 20
77.606515
 30
0.0
  0
SPLINE
  5
10d
100
AcDbEntity
  8
Layer_1
 62
7
100
AcDbSpline
 70
0
 71
3
 72
10
 73
6
 74
4
 40
0.000000
 40
0.000000
 40
0.000000
 40
0.000000
 40
1.570486
 40
3.090923
 40
4.661411
 40
4.661411
 40
4.661411
 40
4.661411
 10
148.312545
 20
77.606515
 30
0.0
 10
148.230677
 20
77.080008
 30
0.0
 10
148.069552
 20
76.043773
 30
0.0
 10
146.875288
 20
74.849508
 30
0.0
 10
145.839052
 20
74.688383
 30
0.0
 10
145.312545
 20
74.606515
 30
0.0
 11
148.312545
 21
77.606515
 31
0.0
 11
147.904100
 21
76.090071
 31
0.0
 11
146.828990
 21
75.014960
 31
0.0
 11
145.312545
 21
74.606515
 31
0.0
  0
LWPOLYLINE
  5
10e
100
AcDbEntity
  8
Layer_1
 62
7
100
AcDbPolyline
 90
2
 70
0
 10
145.312545
 20
74.606515
 30
0.0
 10
29.382520
 20
74.606515
 30
0.0
  0
SPLINE
  5
10f
100
AcDbEntity
  8
Layer_1
 62
7
100
AcDbSpline
 70
0
 71
3
 72
10
 73
6
 74
4
 40
0.000000
 40
0.000000
 40
0.000000
 40
0.000000
 40
1.570487
 40
3.090924
 40
4.661411
 40
4.661411
 40
4.661411
 40
4.661411
 10
29.382520
 20
74.606515
 30
0.0
 10
28.856012
 20
74.688383
 30
0.0
 10
27.819777
 20
74.849509
 30
0.0
 10
26.625513
 20
76.043773
 30
0.0
 10
26.464387
 20
77.080008
 30
0.0
 10
26.382520
 20
77.606515
 30
0.0
 11
29.382520
 21
74.606515
 31
0.0
 11
27.866075
 21
75.014960
 31
0.0
 11
26.790964
 21
76.090071
 31
0.0
 11
26.382520
 21
77.606515
 31
0.0
  0
LWPOLYLINE
  5
110
100
AcDbEntity
  8
Layer_1
 62
7
100
AcDbPolyline
 90
2
 70
0
 10
26.382520
 20
77.606515
 30
0.0
 10
26.382520
 20
123.301996
 30
0.0
  0
SPLINE
  5
111
100
AcDbEntity
  8
Layer_1
 62
7
100
AcDbSpline
 70
0
 71
3
 72
10
 73
6
 74
4
 40
0.000000
 40
0.000000
 40
0.000000
 40
0.000000
 40
1.570488
 40
3.090924
 40
4.661411
 40
4.661411
 40
4.661411
 40
4.661411
 10
26.382520
 20
123.301996
 30
0.0
 10
26.464387
 20
123.828503
 30
0.0
 10
26.625512
 20
124.864738
 30
0.0
 10
27.819777
 20
126.059003
 30
0.0
 10
28.856012
 20
126.220128
 30
0.0
 10
29.382520
 20
126.301995
 30
0.0
 11
26.382520
 21
123.301996
 31
0.0
 11
26.790964
 21
124.818440
 31
0.0
 11
27.866075
 21
125.893551
 31
0.0
 11
29.382520
 21
126.301995
 31
0.0
  0
LWPOLYLINE
  5
112
100
AcDbEntity
  8
Layer_1
 62
7
100
AcDbPolyline
 90
2
 70
0
 10
29.382520
 20
126.301995
 30
0.0
 10
29.382520
 20
126.301995
 30
0.0
  0
SPLINE
  5
113
100
AcDbEntity
  8
Layer_1
 62
7
100
AcDbSpline
 70
0
 71
3
 72
10
 73
6
 74
4
 40
0.000000
 40
0.000000
 40
0.000000
 40
0.000000
 40
1.570047
 40
3.089538
 40
4.659583
 40
4.659583
 40
4.659583
 40
4.659583
 10
29.024792
 20
239.400208
 30
0.0
 10
28.498404
 20
239.318476
 30
0.0
 10
27.462578
 20
239.157643
 30
0.0
 10
26.268746
 20
237.963810
 30
0.0
 10
26.107913
 20
236.927985
 30
0.0
 10
26.026181
 20
236.401597
 30
0.0
 11
29.024792
 21
239.400208
 31
0.0
 11
27.508707
 21
238.992124
 31
0.0
 11
26.434265
 21
237.917681
 31
0.0
 11
26.026181
 21
236.401597
 31
0.0
  0
LWPOLYLINE
  5
114
100
AcDbEntity
  8
Layer_1
 62
7
100
AcDbPolyline
 90
2
 70
0
 10
26.026181
 20
236.401597
 30
0.0
 10
26.026181
 20
190.708056
 30
0.0
  0
SPLINE
  5
115
100
AcDbEntity
  8
Layer_1
 62
7
100
AcDbSpline
 70
0
 71
3
 72
10
 73
6
 74
4
 40
0.000000
 40
0.000000
 40
0.000000
 40
0.000000
 40
1.570046
 40
3.089537
 40
4.659584
 40
4.659584
 40
4.659584
 40
4.659584
 10
26.026181
 20
190.708056
 30
0.0
 10
26.107913
 20
190.181668
 30
0.0
 10
26.268746
 20
189.145842
 30
0.0
 10
27.462578
 20
187.952010
 30
0.0
 10
28.498404
 20
187.791177
 30
0.0
 10
29.024792
 20
187.709444
 30
0.0
 11
26.026181
 21
190.708056
 31
0.0
 11
26.434265
 21
189.191971
 31
0.0
 11
27.508707
 21
188.117529
 31
0.0
 11
29.024792
 21
187.709444
 31
0.0
  0
LWPOLYLINE
  5
116
100
AcDbEntity
  8
Layer_1
 62
7
100
AcDbPolyline
 90
2
 70
0
 10
29.024792
 20
187.709444
 30
0.0
 10
144.956389
 20
187.709444
 30
0.0
  0
SPLINE
  5
117
100
AcDbEntity
  8
Layer_1
 62
7
100
AcDbSpline
 70
0
 71
3
 72
10
 73
6
 74
4
 40
0.000000
 40
0.000000
 40
0.000000
 40
0.000000
 40
1.570045
 40
3.089536
 40
4.659583
 40
4.659583
 40
4.659583
 40
4.659583
 10
144.956389
 20
187.709444
 30
0.0
 10
145.482776
 20
187.791177
 30
0.0
 10
146.518602
 20
187.952010
 30
0.0
 10
147.712434
 20
189.145842
 30
0.0
 10
147.873267
 20
190.181668
 30
0.0
 10
147.955000
 20
190.708056
 30
0.0
 11
144.956389
 21
187.709444
 31
0.0
 11
146.472472
 21
188.117529
 31
0.0
 11
147.546915
 21
189.191971
 31
0.0
 11
147.955000
 21
190.708056
 31
0.0
  0
LWPOLYLINE
  5
118
100
AcDbEntity
  8
Layer_1
 62
7
100
AcDbPolyline
 90
2
 70
0
 10
147.955000
 20
190.708056
 30
0.0
 10
147.955000
 20
236.401597
 30
0.0
  0
SPLINE
  5
119
100
AcDbEntity
  8
Layer_1
 62
7
100
AcDbSpline
 70
0
 71
3
 72
10
 73
6
 74
4
 40
0.000000
 40
0.000000
 40
0.000000
 40
0.000000
 40
1.570045
 40
3.089537
 40
4.659582
 40
4.659582
 40
4.659582
 40
4.659582
 10
147.955000
 20
236.401597
 30
0.0
 10
147.873267
 20
236.927985
 30
0.0
 10
147.712434
 20
237.963810
 30
0.0
 10
146.518602
 20
239.157642
 30
0.0
 10
145.482776
 20
239.318476
 30
0.0
 10
144.956389
 20
239.400208
 30
0.0
 11
147.955000
 21
236.401597
 31
0.0
 11
147.546915
 21
237.917681
 31
0.0
 11
146.472472
 21
238.992124
 31
0.0
 11
144.956389
 21
239.400208
 31
0.0
  0
LWPOLYLINE
  5
11a
100
AcDbEntity
  8
Layer_1
 62
7
100
AcDbPolyline
 90
11
 70
0
 10
144.956389
 20
239.400208
 30
0.0
 10
127.564444
 20
239.400208
 30
0.0
 10
127.564444
 20
208.355764
 30
0.0
 10
112.306806
 20
208.355764
 30
0.0
 10
112.245069
 20
208.355764
 30
0.0
 10
61.515625
 20
208.355764
 30
0.0
 10
61.515625
 20
218.824444
 30
0.0
 10
112.245069
 20
218.824444
 30
0.0
 10
112.245069
 20
239.400208
 30
0.0
 10
29.024792
 20
239.400208
 30
0.0
 10
29.024792
 20
239.400208
 30
0.0
  0
SPLINE
  5
11b
100
AcDbEntity
  8
Layer_1
 62
7
100
AcDbSpline
 70
0
 71
3
 72
19
 73
15
 74
13
 40
0.000000
 40
0.000000
 40
0.000000
 40
0.000000
 40
0.829485
 40
1.634367
 40
2.463852
 40
3.293336
 40
4.098219
 40
4.927704
 40
5.757188
 40
6.562071
 40
7.391556
 40
8.221041
 40
9.025923
 40
9.855408
 40
9.855408
 40
9.855408
 40
9.855408
 10
33.127205
 20
176.006694
 30
0.0
 10
33.083602
 20
175.727031
 30
0.0
 10
32.997689
 20
175.175999
 30
0.0
 10
32.366101
 20
174.569358
 30
0.0
 10
31.542221
 20
174.344580
 30
0.0
 10
30.709691
 20
174.569358
 30
0.0
 10
30.103539
 20
175.175999
 30
0.0
 10
29.878594
 20
176.006694
 30
0.0
 10
30.103539
 20
176.837389
 30
0.0
 10
30.709691
 20
177.444030
 30
0.0
 10
31.542221
 20
177.668808
 30
0.0
 10
32.366101
 20
177.444030
 30
0.0
 10
32.997689
 20
176.837389
 30
0.0
 10
33.083602
 20
176.286357
 30
0.0
 10
33.127205
 20
176.006694
 30
0.0
 11
33.127205
 21
176.006694
 31
0.0
 11
32.910609
 21
175.205987
 31
0.0
 11
32.341472
 21
174.636850
 31
0.0
 11
31.540765
 21
174.420254
 31
0.0
 11
30.740058
 21
174.636850
 31
0.0
 11
30.170920
 21
175.205987
 31
0.0
 11
29.954324
 21
176.006694
 31
0.0
 11
30.170920
 21
176.807401
 31
0.0
 11
30.740058
 21
177.376539
 31
0.0
 11
31.540765
 21
177.593134
 31
0.0
 11
32.341472
 21
177.376539
 31
0.0
 11
32.910609
 21
176.807401
 31
0.0
 11
33.127205
 21
176.006694
 31
0.0
  0
LWPOLYLINE
  5
11c
100
AcDbEntity
  8
Layer_1
 62
7
100
AcDbPolyline
 90
2
 70
0
 10
33.127205
 20
176.006694
 30
0.0
 10
33.127205
 20
176.006694
 30
0.0
  0
SPLINE
  5
11d
100
AcDbEntity
  8
Layer_1
 62
7
100
AcDbSpline
 70
0
 71
3
 72
19
 73
15
 74
13
 40
0.000000
 40
0.000000
 40
0.000000
 40
0.000000
 40
0.829485
 40
1.634367
 40
2.463852
 40
3.293336
 40
4.098219
 40
4.927704
 40
5.757188
 40
6.562071
 40
7.391556
 40
8.221041
 40
9.025923
 40
9.855408
 40
9.855408
 40
9.855408
 40
9.855408
 10
144.740740
 20
176.006694
 30
0.0
 10
144.697137
 20
175.727031
 30
0.0
 10
144.611224
 20
175.175999
 30
0.0
 10
143.979636
 20
174.569358
 30
0.0
 10
143.155756
 20
174.344580
 30
0.0
 10
142.323226
 20
174.569358
 30
0.0
 10
141.717074
 20
175.175999
 30
0.0
 10
141.492129
 20
176.006694
 30
0.0
 10
141.717074
 20
176.837389
 30
0.0
 10
142.323226
 20
177.444030
 30
0.0
 10
143.155756
 20
177.668808
 30
0.0
 10
143.979636
 20
177.444030
 30
0.0
 10
144.611224
 20
176.837389
 30
0.0
 10
144.697137
 20
176.286357
 30
0.0
 10
144.740740
 20
176.006694
 30
0.0
 11
144.740740
 21
176.006694
 31
0.0
 11
144.524144
 21
175.205987
 31
0.0
 11
143.955007
 21
174.636850
 31
0.0
 11
143.154300
 21
174.420254
 31
0.0
 11
142.353593
 21
174.636850
 31
0.0
 11
141.784455
 21
175.205987
 31
0.0
 11
141.567859
 21
176.006694
 31
0.0
 11
141.784455
 21
176.807401
 31
0.0
 11
142.353593
 21
177.376539
 31
0.0
 11
143.154300
 21
177.593134
 31
0.0
 11
143.955007
 21
177.376539
 31
0.0
 11
144.524144
 21
176.807401
 31
0.0
 11
144.740740
 21
176.006694
 31
0.0
  0
LWPOLYLINE
  5
11e
100
AcDbEntity
  8
Layer_1
 62
7
100
AcDbPolyline
 90
2
 70
0
 10
144.740740
 20
176.006694
 30
0.0
 10
144.740740
 20
176.006694
 30
0.0
  0
SPLINE
  5
11f
100
AcDbEntity
  8
Layer_1
 62
7
100
AcDbSpline
 70
0
 71
3
 72
19
 73
15
 74
13
 40
0.000000
 40
0.000000
 40
0.000000
 40
0.000000
 40
0.829485
 40
1.634367
 40
2.463852
 40
3.293336
 40
4.098219
 40
4.927704
 40
5.757188
 40
6.562071
 40
7.391556
 40
8.221041
 40
9.025923
 40
9.855408
 40
9.855408
 40
9.855408
 40
9.855408
 10
33.127205
 20
136.661835
 30
0.0
 10
33.083602
 20
136.382172
 30
0.0
 10
32.997689
 20
135.831140
 30
0.0
 10
32.366101
 20
135.224499
 30
0.0
 10
31.542221
 20
134.999721
 30
0.0
 10
30.709691
 20
135.224499
 30
0.0
 10
30.103539
 20
135.831140
 30
0.0
 10
29.878594
 20
136.661835
 30
0.0
 10
30.103539
 20
137.492530
 30
0.0
 10
30.709691
 20
138.099171
 30
0.0
 10
31.542221
 20
138.323950
 30
0.0
 10
32.366101
 20
138.099171
 30
0.0
 10
32.997689
 20
137.492530
 30
0.0
 10
33.083602
 20
136.941498
 30
0.0
 10
33.127205
 20
136.661835
 30
0.0
 11
33.127205
 21
136.661835
 31
0.0
 11
32.910609
 21
135.861128
 31
0.0
 11
32.341472
 21
135.291991
 31
0.0
 11
31.540765
 21
135.075395
 31
0.0
 11
30.740058
 21
135.291991
 31
0.0
 11
30.170920
 21
135.861128
 31
0.0
 11
29.954324
 21
136.661835
 31
0.0
 11
30.170920
 21
137.462542
 31
0.0
 11
30.740058
 21
138.031680
 31
0.0
 11
31.540765
 21
138.248275
 31
0.0
 11
32.341472
 21
138.031680
 31
0.0
 11
32.910609
 21
137.462542
 31
0.0
 11
33.127205
 21
136.661835
 31
0.0
  0
LWPOLYLINE
  5
120
100
AcDbEntity
  8
Layer_1
 62
7
100
AcDbPolyline
 90
2
 70
0
 10
33.127205
 20
136.661835
 30
0.0
 10
33.127205
 20
136.661835
 30
0.0
  0
SPLINE
  5
121
100
AcDbEntity
  8
Layer_1
 62
7
100
AcDbSpline
 70
0
 71
3
 72
19
 73
15
 74
13
 40
0.000000
 40
0.000000
 40
0.000000
 40
0.000000
 40
0.829485
 40
1.634367
 40
2.463852
 40
3.293336
 40
4.098219
 40
4.927704
 40
5.757188
 40
6.562071
 40
7.391556
 40
8.221041
 40
9.025923
 40
9.855408
 40
9.855408
 40
9.855408
 40
9.855408
 10
144.740740
 20
136.661835
 30
0.0
 10
144.697137
 20
136.382172
 30
0.0
 10
144.611224
 20
135.831140
 30
0.0
 10
143.979636
 20
135.224499
 30
0.0
 10
143.155756
 20
134.999721
 30
0.0
 10
142.323226
 20
135.224499
 30
0.0
 10
141.717074
 20
135.831140
 30
0.0
 10
141.492129
 20
136.661835
 30
0.0
 10
141.717074
 20
137.492530
 30
0.0
 10
142.323226
 20
138.099171
 30
0.0
 10
143.155756
 20
138.323950
 30
0.0
 10
143.979636
 20
138.099171
 30
0.0
 10
144.611224
 20
137.492530
 30
0.0
 10
144.697137
 20
136.941498
 30
0.0
 10
144.740740
 20
136.661835
 30
0.0
 11
144.740740
 21
136.661835
 31
0.0
 11
144.524144
 21
135.861128
 31
0.0
 11
143.955007
 21
135.291991
 31
0.0
 11
143.154300
 21
135.075395
 31
0.0
 11
142.353593
 21
135.291991
 31
0.0
 11
141.784455
 21
135.861128
 31
0.0
 11
141.567859
 21
136.661835
 31
0.0
 11
141.784455
 21
137.462542
 31
0.0
 11
142.353593
 21
138.031680
 31
0.0
 11
143.154300
 21
138.248275
 31
0.0
 11
143.955007
 21
138.031680
 31
0.0
 11
144.524144
 21
137.462542
 31
0.0
 11
144.740740
 21
136.661835
 31
0.0
  0
LWPOLYLINE
  5
122
100
AcDbEntity
  8
Layer_1
 62
7
100
AcDbPolyline
 90
2
 70
0
 10
144.740740
 20
136.661835
 30
0.0
 10
144.740740
 20
136.661835
 30
0.0
  0
SPLINE
  5
123
100
AcDbEntity
  8
Layer_1
 62
7
100
AcDbSpline
 70
0
 71
3
 72
19
 73
15
 74
13
 40
0.000000
 40
0.000000
 40
0.000000
 40
0.000000
 40
0.829485
 40
1.634367
 40
2.463852
 40
3.293336
 40
4.098219
 40
4.927704
 40
5.757188
 40
6.562071
 40
7.391556
 40
8.221041
 40
9.025923
 40
9.855408
 40
9.855408
 40
9.855408
 40
9.855408
 10
33.127205
 20
120.126686
 30
0.0
 10
33.083602
 20
119.847022
 30
0.0
 10
32.997689
 20
119.295991
 30
0.0
 10
32.366101
 20
118.689350
 30
0.0
 10
31.542221
 20
118.464571
 30
0.0
 10
30.709691
 20
118.689350
 30
0.0
 10
30.103539
 20
119.295991
 30
0.0
 10
29.878594
 20
120.126686
 30
0.0
 10
30.103539
 20
120.957381
 30
0.0
 10
30.709691
 20
121.564021
 30
0.0
 10
31.542221
 20
121.788800
 30
0.0
 10
32.366101
 20
121.564021
 30
0.0
 10
32.997689
 20
120.957380
 30
0.0
 10
33.083602
 20
120.406349
 30
0.0
 10
33.127205
 20
120.126686
 30
0.0
 11
33.127205
 21
120.126686
 31
0.0
 11
32.910609
 21
119.325979
 31
0.0
 11
32.341472
 21
118.756841
 31
0.0
 11
31.540765
 21
118.540246
 31
0.0
 11
30.740058
 21
118.756841
 31
0.0
 11
30.170920
 21
119.325979
 31
0.0
 11
29.954324
 21
120.126686
 31
0.0
 11
30.170920
 21
120.927392
 31
0.0
 11
30.740058
 21
121.496530
 31
0.0
 11
31.540765
 21
121.713126
 31
0.0
 11
32.341472
 21
121.496530
 31
0.0
 11
32.910609
 21
120.927392
 31
0.0
 11
33.127205
 21
120.126686
 31
0.0
  0
LWPOLYLINE
  5
124
100
AcDbEntity
  8
Layer_1
 62
7
100
AcDbPolyline
 90
2
 70
0
 10
33.127205
 20
120.126686
 30
0.0
 10
33.127205
 20
120.126686
 30
0.0
  0
SPLINE
  5
125
100
AcDbEntity
  8
Layer_1
 62
7
100
AcDbSpline
 70
0
 71
3
 72
19
 73
15
 74
13
 40
0.000000
 40
0.000000
 40
0.000000
 40
0.000000
 40
0.829485
 40
1.634367
 40
2.463852
 40
3.293336
 40
4.098219
 40
4.927704
 40
5.757188
 40
6.562071
 40
7.391556
 40
8.221041
 40
9.025923
 40
9.855408
 40
9.855408
 40
9.855408
 40
9.855408
 10
144.740740
 20
120.126686
 30
0.0
 10
144.697137
 20
119.847022
 30
0.0
 10
144.611224
 20
119.295991
 30
0.0
 10
143.979636
 20
118.689350
 30
0.0
 10
143.155756
 20
118.464571
 30
0.0
 10
142.323226
 20
118.689350
 30
0.0
 10
141.717074
 20
119.295991
 30
0.0
 10
141.492129
 20
120.126686
 30
0.0
 10
141.717074
 20
120.957381
 30
0.0
 10
142.323226
 20
121.564021
 30
0.0
 10
143.155756
 20
121.788800
 30
0.0
 10
143.979636
 20
121.564021
 30
0.0
 10
144.611224
 20
120.957380
 30
0.0
 10
144.697137
 20
120.406349
 30
0.0
 10
144.740740
 20
120.126686
 30
0.0
 11
144.740740
 21
120.126686
 31
0.0
 11
144.524144
 21
119.325979
 31
0.0
 11
143.955007
 21
118.756841
 31
0.0
 11
143.154300
 21
118.540246
 31
0.0
 11
142.353593
 21
118.756841
 31
0.0
 11
141.784455
 21
119.325979
 31
0.0
 11
141.567859
 21
120.126686
 31
0.0
 11
141.784455
 21
120.927392
 31
0.0
 11
142.353593
 21
121.496530
 31
0.0
 11
143.154300
 21
121.713126
 31
0.0
 11
143.955007
 21
121.496530
 31
0.0
 11
144.524144
 21
120.927392
 31
0.0
 11
144.740740
 21
120.126686
 31
0.0
  0
LWPOLYLINE
  5
126
100
AcDbEntity
  8
Layer_1
 62
7
100
AcDbPolyline
 90
2
 70
0
 10
144.740740
 20
120.126686
 30
0.0
 10
144.740740
 20
120.126686
 30
0.0
  0
SPLINE
  5
127
100
AcDbEntity
  8
Layer_1
 62
7
100
AcDbSpline
 70
0
 71
3
 72
19
 73
15
 74
13
 40
0.000000
 40
0.000000
 40
0.000000
 40
0.000000
 40
0.829485
 40
1.634367
 40
2.463852
 40
3.293336
 40
4.098219
 40
4.927704
 40
5.757188
 40
6.562071
 40
7.391556
 40
8.221041
 40
9.025923
 40
9.855408
 40
9.855408
 40
9.855408
 40
9.855408
 10
33.127205
 20
80.781827
 30
0.0
 10
33.083602
 20
80.502163
 30
0.0
 10
32.997689
 20
79.951132
 30
0.0
 10
32.366101
 20
79.344491
 30
0.0
 10
31.542221
 20
79.119712
 30
0.0
 10
30.709691
 20
79.344491
 30
0.0
 10
30.103539
 20
79.951132
 30
0.0
 10
29.878594
 20
80.781827
 30
0.0
 10
30.103539
 20
81.612522
 30
0.0
 10
30.709691
 20
82.219162
 30
0.0
 10
31.542221
 20
82.443941
 30
0.0
 10
32.366101
 20
82.219162
 30
0.0
 10
32.997689
 20
81.612522
 30
0.0
 10
33.083602
 20
81.061490
 30
0.0
 10
33.127205
 20
80.781827
 30
0.0
 11
33.127205
 21
80.781827
 31
0.0
 11
32.910609
 21
79.981120
 31
0.0
 11
32.341472
 21
79.411982
 31
0.0
 11
31.540765
 21
79.195387
 31
0.0
 11
30.740058
 21
79.411982
 31
0.0
 11
30.170920
 21
79.981120
 31
0.0
 11
29.954324
 21
80.781827
 31
0.0
 11
30.170920
 21
81.582533
 31
0.0
 11
30.740058
 21
82.151671
 31
0.0
 11
31.540765
 21
82.368267
 31
0.0
 11
32.341472
 21
82.151671
 31
0.0
 11
32.910609
 21
81.582533
 31
0.0
 11
33.127205
 21
80.781827
 31
0.0
  0
LWPOLYLINE
  5
128
100
AcDbEntity
  8
Layer_1
 62
7
100
AcDbPolyline
 90
2
 70
0
 10
33.127205
 20
80.781827
 30
0.0
 10
33.127205
 20
80.781827
 30
0.0
  0
SPLINE
  5
129
100
AcDbEntity
  8
Layer_1
 62
7
100
AcDbSpline
 70
0
 71
3
 72
19
 73
15
 74
13
 40
0.000000
 40
0.000000
 40
0.000000
 40
0.000000
 40
0.829485
 40
1.634367
 40
2.463852
 40
3.293336
 40
4.098219
 40
4.927704
 40
5.757188
 40
6.562071
 40
7.391556
 40
8.221041
 40
9.025923
 40
9.855408
 40
9.855408
 40
9.855408
 40
9.855408
 10
144.740740
 20
80.781827
 30
0.0
 10
144.697137
 20
80.502163
 30
0.0
 10
144.611224
 20
79.951132
 30
0.0
 10
143.979636
 20
79.344491
 30
0.0
 10
143.155756
 20
79.119712
 30
0.0
 10
142.323226
 20
79.344491
 30
0.0
 10
141.717074
 20
79.951132
 30
0.0
 10
141.492129
 20
80.781827
 30
0.0
 10
141.717074
 20
81.612522
 30
0.0
 10
142.323226
 20
82.219162
 30
0.0
 10
143.155756
 20
82.443941
 30
0.0
 10
143.979636
 20
82.219162
 30
0.0
 10
144.611224
 20
81.612522
 30
0.0
 10
144.697137
 20
81.061490
 30
0.0
 10
144.740740
 20
80.781827
 30
0.0
 11
144.740740
 21
80.781827
 31
0.0
 11
144.524144
 21
79.981120
 31
0.0
 11
143.955007
 21
79.411982
 31
0.0
 11
143.154300
 21
79.195387
 31
0.0
 11
142.353593
 21
79.411982
 31
0.0
 11
141.784455
 21
79.981120
 31
0.0
 11
141.567859
 21
80.781827
 31
0.0
 11
141.784455
 21
81.582533
 31
0.0
 11
142.353593
 21
82.151671
 31
0.0
 11
143.154300
 21
82.368267
 31
0.0
 11
143.955007
 21
82.151671
 31
0.0
 11
144.524144
 21
81.582533
 31
0.0
 11
144.740740
 21
80.781827
 31
0.0
  0
LWPOLYLINE
  5
12a
100
AcDbEntity
  8
Layer_1
 62
7
100
AcDbPolyline
 90
2
 70
0
 10
144.740740
 20
80.781827
 30
0.0
 10
144.740740
 20
80.781827
 30
0.0
  0
SPLINE
  5
12b
100
AcDbEntity
  8
Layer_1
 62
7
100
AcDbSpline
 70
0
 71
3
 72
19
 73
15
 74
13
 40
0.000000
 40
0.000000
 40
0.000000
 40
0.000000
 40
0.829485
 40
1.634367
 40
2.463852
 40
3.293336
 40
4.098219
 40
4.927704
 40
5.757188
 40
6.562071
 40
7.391556
 40
8.221041
 40
9.025923
 40
9.855408
 40
9.855408
 40
9.855408
 40
9.855408
 10
32.770689
 20
233.228244
 30
0.0
 10
32.727086
 20
232.948581
 30
0.0
 10
32.641173
 20
232.397549
 30
0.0
 10
32.009585
 20
231.790908
 30
0.0
 10
31.185705
 20
231.566130
 30
0.0
 10
30.353176
 20
231.790908
 30
0.0
 10
29.747023
 20
232.397549
 30
0.0
 10
29.522078
 20
233.228244
 30
0.0
 10
29.747023
 20
234.058939
 30
0.0
 10
30.353176
 20
234.665580
 30
0.0
 10
31.185705
 20
234.890358
 30
0.0
 10
32.009585
 20
234.665580
 30
0.0
 10
32.641173
 20
234.058939
 30
0.0
 10
32.727086
 20
233.507907
 30
0.0
 10
32.770689
 20
233.228244
 30
0.0
 11
32.770689
 21
233.228244
 31
0.0
 11
32.554094
 21
232.427537
 31
0.0
 11
31.984956
 21
231.858399
 31
0.0
 11
31.184249
 21
231.641804
 31
0.0
 11
30.383542
 21
231.858399
 31
0.0
 11
29.814404
 21
232.427537
 31
0.0
 11
29.597809
 21
233.228244
 31
0.0
 11
29.814404
 21
234.028951
 31
0.0
 11
30.383542
 21
234.598088
 31
0.0
 11
31.184249
 21
234.814684
 31
0.0
 11
31.984956
 21
234.598088
 31
0.0
 11
32.554094
 21
234.028951
 31
0.0
 11
32.770689
 21
233.228244
 31
0.0
  0
LWPOLYLINE
  5
12c
100
AcDbEntity
  8
Layer_1
 62
7
100
AcDbPolyline
 90
2
 70
0
 10
32.770689
 20
233.228244
 30
0.0
 10
32.770689
 20
233.228244
 30
0.0
  0
SPLINE
  5
12d
100
AcDbEntity
  8
Layer_1
 62
7
100
AcDbSpline
 70
0
 71
3
 72
19
 73
15
 74
13
 40
0.000000
 40
0.000000
 40
0.000000
 40
0.000000
 40
0.829485
 40
1.634367
 40
2.463852
 40
3.293336
 40
4.098219
 40
4.927704
 40
5.757188
 40
6.562071
 40
7.391556
 40
8.221041
 40
9.025923
 40
9.855408
 40
9.855408
 40
9.855408
 40
9.855408
 10
144.384224
 20
233.228244
 30
0.0
 10
144.340621
 20
232.948581
 30
0.0
 10
144.254709
 20
232.397549
 30
0.0
 10
143.623120
 20
231.790908
 30
0.0
 10
142.799241
 20
231.566130
 30
0.0
 10
141.966711
 20
231.790908
 30
0.0
 10
141.360559
 20
232.397549
 30
0.0
 10
141.135613
 20
233.228244
 30
0.0
 10
141.360559
 20
234.058939
 30
0.0
 10
141.966711
 20
234.665580
 30
0.0
 10
142.799241
 20
234.890358
 30
0.0
 10
143.623120
 20
234.665580
 30
0.0
 10
144.254709
 20
234.058939
 30
0.0
 10
144.340621
 20
233.507907
 30
0.0
 10
144.384224
 20
233.228244
 30
0.0
 11
144.384224
 21
233.228244
 31
0.0
 11
144.167629
 21
232.427537
 31
0.0
 11
143.598491
 21
231.858399
 31
0.0
 11
142.797785
 21
231.641804
 31
0.0
 11
141.997078
 21
231.858399
 31
0.0
 11
141.427940
 21
232.427537
 31
0.0
 11
141.211344
 21
233.228244
 31
0.0
 11
141.427940
 21
234.028951
 31
0.0
 11
141.997078
 21
234.598088
 31
0.0
 11
142.797785
 21
234.814684
 31
0.0
 11
143.598491
 21
234.598088
 31
0.0
 11
144.167629
 21
234.028951
 31
0.0
 11
144.384224
 21
233.228244
 31
0.0
  0
LWPOLYLINE
  5
12e
100
AcDbEntity
  8
Layer_1
 62
7
100
AcDbPolyline
 90
2
 70
0
 10
144.384224
 20
233.228244
 30
0.0
 10
144.384224
 20
233.228244
 30
0.0
  0
SPLINE
  5
12f
100
AcDbEntity
  8
Layer_1
 62
7
100
AcDbSpline
 70
0
 71
3
 72
19
 73
15
 74
13
 40
0.000000
 40
0.000000
 40
0.000000
 40
0.000000
 40
0.829485
 40
1.634367
 40
2.463852
 40
3.293336
 40
4.098219
 40
4.927704
 40
5.757188
 40
6.562071
 40
7.391556
 40
8.221041
 40
9.025923
 40
9.855408
 40
9.855408
 40
9.855408
 40
9.855408
 10
32.770689
 20
193.883385
 30
0.0
 10
32.727086
 20
193.603722
 30
0.0
 10
32.641173
 20
193.052690
 30
0.0
 10
32.009585
 20
192.446049
 30
0.0
 10
31.185705
 20
192.221271
 30
0.0
 10
30.353176
 20
192.446049
 30
0.0
 10
29.747023
 20
193.052690
 30
0.0
 10
29.522078
 20
193.883385
 30
0.0
 10
29.747023
 20
194.714080
 30
0.0
 10
30.353176
 20
195.320721
 30
0.0
 10
31.185705
 20
195.545499
 30
0.0
 10
32.009585
 20
195.320721
 30
0.0
 10
32.641173
 20
194.714080
 30
0.0
 10
32.727086
 20
194.163048
 30
0.0
 10
32.770689
 20
193.883385
 30
0.0
 11
32.770689
 21
193.883385
 31
0.0
 11
32.554094
 21
193.082678
 31
0.0
 11
31.984956
 21
192.513541
 31
0.0
 11
31.184249
 21
192.296945
 31
0.0
 11
30.383542
 21
192.513541
 31
0.0
 11
29.814404
 21
193.082678
 31
0.0
 11
29.597809
 21
193.883385
 31
0.0
 11
29.814404
 21
194.684092
 31
0.0
 11
30.383542
 21
195.253229
 31
0.0
 11
31.184249
 21
195.469825
 31
0.0
 11
31.984956
 21
195.253229
 31
0.0
 11
32.554094
 21
194.684092
 31
0.0
 11
32.770689
 21
193.883385
 31
0.0
  0
LWPOLYLINE
  5
130
100
AcDbEntity
  8
Layer_1
 62
7
100
AcDbPolyline
 90
2
 70
0
 10
32.770689
 20
193.883385
 30
0.0
 10
32.770689
 20
193.883385
 30
0.0
  0
SPLINE
  5
131
100
AcDbEntity
  8
Layer_1
 62
7
100
AcDbSpline
 70
0
 71
3
 72
19
 73
15
 74
13
 40
0.000000
 40
0.000000
 40
0.000000
 40
0.000000
 40
0.829485
 40
1.634367
 40
2.463852
 40
3.293336
 40
4.098219
 40
4.927704
 40
5.757188
 40
6.562071
 40
7.391556
 40
8.221041
 40
9.025923
 40
9.855408
 40
9.855408
 40
9.855408
 40
9.855408
 10
144.384224
 20
193.883385
 30
0.0
 10
144.340621
 20
193.603722
 30
0.0
 10
144.254709
 20
193.052690
 30
0.0
 10
143.623120
 20
192.446049
 30
0.0
 10
142.799241
 20
192.221271
 30
0.0
 10
141.966711
 20
192.446049
 30
0.0
 10
141.360559
 20
193.052690
 30
0.0
 10
141.135613
 20
193.883385
 30
0.0
 10
141.360559
 20
194.714080
 30
0.0
 10
141.966711
 20
195.320721
 30
0.0
 10
142.799241
 20
195.545499
 30
0.0
 10
143.623120
 20
195.320721
 30
0.0
 10
144.254709
 20
194.714080
 30
0.0
 10
144.340621
 20
194.163048
 30
0.0
 10
144.384224
 20
193.883385
 30
0.0
 11
144.384224
 21
193.883385
 31
0.0
 11
144.167629
 21
193.082678
 31
0.0
 11
143.598491
 21
192.513541
 31
0.0
 11
142.797785
 21
192.296945
 31
0.0
 11
141.997078
 21
192.513541
 31
0.0
 11
141.427940
 21
193.082678
 31
0.0
 11
141.211344
 21
193.883385
 31
0.0
 11
141.427940
 21
194.684092
 31
0.0
 11
141.997078
 21
195.253229
 31
0.0
 11
142.797785
 21
195.469825
 31
0.0
 11
143.598491
 21
195.253229
 31
0.0
 11
144.167629
 21
194.684092
 31
0.0
 11
144.384224
 21
193.883385
 31
0.0
  0
LWPOLYLINE
  5
132
100
AcDbEntity
  8
Layer_1
 62
7
100
AcDbPolyline
 90
2
 70
0
 10
144.384224
 20
193.883385
 30
0.0
 10
144.384224
 20
193.883385
 30
0.0
  0
ENDSEC
  0
SECTION
  2
OBJECTS
  0
DICTIONARY
  5
C
330
0
100
AcDbDictionary
  3
ACAD_GROUP
350
D
  3
ACAD_MLINESTYLE
350
17
  0
DICTIONARY
  5
D
330
C
100
AcDbDictionary
  0
DICTIONARY
  5
1A
330
C
100
AcDbDictionary
  0
DICTIONARY
  5
17
330
C
100
AcDbDictionary
  3
STANDARD
350
18
  0
DICTIONARY
  5
19
330
C
100
AcDbDictionary
  0
ENDSEC
  0
EOF
