<?xml version="1.0" encoding="UTF-8" standalone="no"?>
<!-- Created with Inkscape (http://www.inkscape.org/) -->

<svg
   xmlns:dc="http://purl.org/dc/elements/1.1/"
   xmlns:cc="http://creativecommons.org/ns#"
   xmlns:rdf="http://www.w3.org/1999/02/22-rdf-syntax-ns#"
   xmlns:svg="http://www.w3.org/2000/svg"
   xmlns="http://www.w3.org/2000/svg"
   xmlns:sodipodi="http://sodipodi.sourceforge.net/DTD/sodipodi-0.dtd"
   xmlns:inkscape="http://www.inkscape.org/namespaces/inkscape"
   width="744.09448819"
   height="1052.3622047"
   id="svg2"
   version="1.1"
   inkscape:version="0.48.4 r9939"
   sodipodi:docname="stand-v1.1.dxf">
  <defs
     id="defs4" />
  <sodipodi:namedview
     id="base"
     pagecolor="#ffffff"
     bordercolor="#666666"
     borderopacity="1.0"
     inkscape:pageopacity="0.0"
     inkscape:pageshadow="2"
     inkscape:zoom="1.5832031"
     inkscape:cx="292.62758"
     inkscape:cy="542.1359"
     inkscape:document-units="px"
     inkscape:current-layer="layer1"
     showgrid="false"
     inkscape:snap-bbox="true"
     inkscape:bbox-paths="true"
     inkscape:snap-bbox-midpoints="true"
     showguides="true"
     inkscape:guide-bbox="true"
     inkscape:window-width="1366"
     inkscape:window-height="746"
     inkscape:window-x="-8"
     inkscape:window-y="-8"
     inkscape:window-maximized="1" />
  <metadata
     id="metadata7">
    <rdf:RDF>
      <cc:Work
         rdf:about="">
        <dc:format>image/svg+xml</dc:format>
        <dc:type
           rdf:resource="http://purl.org/dc/dcmitype/StillImage" />
        <dc:title></dc:title>
      </cc:Work>
    </rdf:RDF>
  </metadata>
  <g
     inkscape:label="Layer 1"
     inkscape:groupmode="layer"
     id="layer1">
    <path
       style="fill:none;stroke:#000000;stroke-width:0.20556808;stroke-miterlimit:4;stroke-opacity:1"
       d="m 166.91295,489.48926 285.17236,0 0,17.86529 -285.17236,0 z"
       id="rect2985"
       inkscape:connector-curvature="0" />
    <path
       style="fill:none;stroke:#000000;stroke-width:0.35433072;stroke-miterlimit:4;stroke-opacity:1"
       d="m 104.11129,406.83542 410.77568,0 c 5.88898,0 10.62992,4.74094 10.62992,10.62992 l 0,161.91312 c 0,5.88897 -4.74094,10.62992 -10.62992,10.62992 l -410.77568,0 c -5.888976,0 -10.629921,-4.74095 -10.629921,-10.62992 l 0,-161.91312 c 0,-5.88898 4.740945,-10.62992 10.629921,-10.62992 z"
       id="rect2987" />
    <path
       style="fill:none;stroke:#000000;stroke-width:0.35433072;stroke-miterlimit:4;stroke-opacity:1"
       d="m 104.11129,604.83545 410.77568,0 c 5.88898,0 10.62992,4.74094 10.62992,10.62992 l 0,161.91312 c 0,5.88897 -4.74094,10.62992 -10.62992,10.62992 l -410.77568,0 c -5.888976,0 -10.629921,-4.74095 -10.629921,-10.62992 l 0,-161.91312 c 0,-5.88898 4.740945,-10.62992 10.629921,-10.62992 z"
       id="rect2989" />
    <path
       style="fill:none;stroke:#000000;stroke-width:0.35433072;stroke-miterlimit:4;stroke-opacity:1"
       d="M 102.84375 204.09375 C 96.954769 204.09375 92.21875 208.82978 92.21875 214.71875 L 92.21875 376.625 C 92.21875 382.51398 96.954769 387.25 102.84375 387.25 L 513.625 387.25 C 519.51397 387.25 524.25 382.51398 524.25 376.625 L 524.25 214.71875 C 524.25 208.82978 519.51397 204.09375 513.625 204.09375 L 452 204.09375 L 452 314.09375 L 397.9375 314.09375 L 397.71875 314.09375 L 217.96875 314.09375 L 217.96875 277 L 397.71875 277 L 397.71875 204.09375 L 102.84375 204.09375 z "
       id="rect2989-1" />
    <g
       id="g3041"
       transform="matrix(1.0669588,0,0,1.0669588,-25.247208,177.26044)">
      <path
         transform="matrix(0.2509797,0,0,0.27432665,-30.206891,137.01708)"
         style="fill:none;stroke:#000000;stroke-width:0.35433072;stroke-miterlimit:4;stroke-opacity:1"
         d="m 652.97375,359.63831 c 0,10.60669 -9.39827,19.20511 -20.99163,19.20511 -11.59336,0 -20.99164,-8.59842 -20.99164,-19.20511 0,-10.60669 9.39828,-19.20511 20.99164,-19.20511 11.59336,0 20.99163,8.59842 20.99163,19.20511 z"
         id="path3033" />
      <path
         transform="matrix(0.2509797,0,0,0.27432665,340.45506,137.01708)"
         style="fill:none;stroke:#000000;stroke-width:0.35433072;stroke-miterlimit:4;stroke-opacity:1"
         d="m 652.97375,359.63831 c 0,10.60669 -9.39827,19.20511 -20.99163,19.20511 -11.59336,0 -20.99164,-8.59842 -20.99164,-19.20511 0,-10.60669 9.39828,-19.20511 20.99164,-19.20511 11.59336,0 20.99163,8.59842 20.99163,19.20511 z"
         id="path3035" />
      <path
         transform="matrix(0.2509797,0,0,0.27432665,-30.206891,267.67903)"
         style="fill:none;stroke:#000000;stroke-width:0.35433072;stroke-miterlimit:4;stroke-opacity:1"
         d="m 652.97375,359.63831 c 0,10.60669 -9.39827,19.20511 -20.99163,19.20511 -11.59336,0 -20.99164,-8.59842 -20.99164,-19.20511 0,-10.60669 9.39828,-19.20511 20.99164,-19.20511 11.59336,0 20.99163,8.59842 20.99163,19.20511 z"
         id="path3037" />
      <path
         transform="matrix(0.2509797,0,0,0.27432665,340.45506,267.67903)"
         style="fill:none;stroke:#000000;stroke-width:0.35433072;stroke-miterlimit:4;stroke-opacity:1"
         d="m 652.97375,359.63831 c 0,10.60669 -9.39827,19.20511 -20.99163,19.20511 -11.59336,0 -20.99164,-8.59842 -20.99164,-19.20511 0,-10.60669 9.39828,-19.20511 20.99164,-19.20511 11.59336,0 20.99163,8.59842 20.99163,19.20511 z"
         id="path3039" />
    </g>
    <g
       transform="matrix(1.0669588,0,0,1.0669588,-25.247208,375.26047)"
       id="g3047">
      <path
         transform="matrix(0.2509797,0,0,0.27432665,-30.206891,137.01708)"
         style="fill:none;stroke:#000000;stroke-width:0.35433072;stroke-miterlimit:4;stroke-opacity:1"
         d="m 652.97375,359.63831 c 0,10.60669 -9.39827,19.20511 -20.99163,19.20511 -11.59336,0 -20.99164,-8.59842 -20.99164,-19.20511 0,-10.60669 9.39828,-19.20511 20.99164,-19.20511 11.59336,0 20.99163,8.59842 20.99163,19.20511 z"
         id="path3049" />
      <path
         transform="matrix(0.2509797,0,0,0.27432665,340.45506,137.01708)"
         style="fill:none;stroke:#000000;stroke-width:0.35433072;stroke-miterlimit:4;stroke-opacity:1"
         d="m 652.97375,359.63831 c 0,10.60669 -9.39827,19.20511 -20.99163,19.20511 -11.59336,0 -20.99164,-8.59842 -20.99164,-19.20511 0,-10.60669 9.39828,-19.20511 20.99164,-19.20511 11.59336,0 20.99163,8.59842 20.99163,19.20511 z"
         id="path3051" />
      <path
         transform="matrix(0.2509797,0,0,0.27432665,-30.206891,267.67903)"
         style="fill:none;stroke:#000000;stroke-width:0.35433072;stroke-miterlimit:4;stroke-opacity:1"
         d="m 652.97375,359.63831 c 0,10.60669 -9.39827,19.20511 -20.99163,19.20511 -11.59336,0 -20.99164,-8.59842 -20.99164,-19.20511 0,-10.60669 9.39828,-19.20511 20.99164,-19.20511 11.59336,0 20.99163,8.59842 20.99163,19.20511 z"
         id="path3053" />
      <path
         transform="matrix(0.2509797,0,0,0.27432665,340.45506,267.67903)"
         style="fill:none;stroke:#000000;stroke-width:0.35433072;stroke-miterlimit:4;stroke-opacity:1"
         d="m 652.97375,359.63831 c 0,10.60669 -9.39827,19.20511 -20.99163,19.20511 -11.59336,0 -20.99164,-8.59842 -20.99164,-19.20511 0,-10.60669 9.39828,-19.20511 20.99164,-19.20511 11.59336,0 20.99163,8.59842 20.99163,19.20511 z"
         id="path3055" />
    </g>
    <g
       transform="matrix(1.0669588,0,0,1.0669588,-26.510452,-25.493083)"
       id="g3057">
      <path
         transform="matrix(0.2509797,0,0,0.27432665,-30.206891,137.01708)"
         style="fill:none;stroke:#000000;stroke-width:0.35433072;stroke-miterlimit:4;stroke-opacity:1"
         d="m 652.97375,359.63831 c 0,10.60669 -9.39827,19.20511 -20.99163,19.20511 -11.59336,0 -20.99164,-8.59842 -20.99164,-19.20511 0,-10.60669 9.39828,-19.20511 20.99164,-19.20511 11.59336,0 20.99163,8.59842 20.99163,19.20511 z"
         id="path3059" />
      <path
         transform="matrix(0.2509797,0,0,0.27432665,340.45506,137.01708)"
         style="fill:none;stroke:#000000;stroke-width:0.35433072;stroke-miterlimit:4;stroke-opacity:1"
         d="m 652.97375,359.63831 c 0,10.60669 -9.39827,19.20511 -20.99163,19.20511 -11.59336,0 -20.99164,-8.59842 -20.99164,-19.20511 0,-10.60669 9.39828,-19.20511 20.99164,-19.20511 11.59336,0 20.99163,8.59842 20.99163,19.20511 z"
         id="path3061" />
      <path
         transform="matrix(0.2509797,0,0,0.27432665,-30.206891,267.67903)"
         style="fill:none;stroke:#000000;stroke-width:0.35433072;stroke-miterlimit:4;stroke-opacity:1"
         d="m 652.97375,359.63831 c 0,10.60669 -9.39827,19.20511 -20.99163,19.20511 -11.59336,0 -20.99164,-8.59842 -20.99164,-19.20511 0,-10.60669 9.39828,-19.20511 20.99164,-19.20511 11.59336,0 20.99163,8.59842 20.99163,19.20511 z"
         id="path3063" />
      <path
         transform="matrix(0.2509797,0,0,0.27432665,340.45506,267.67903)"
         style="fill:none;stroke:#000000;stroke-width:0.35433072;stroke-miterlimit:4;stroke-opacity:1"
         d="m 652.97375,359.63831 c 0,10.60669 -9.39827,19.20511 -20.99163,19.20511 -11.59336,0 -20.99164,-8.59842 -20.99164,-19.20511 0,-10.60669 9.39828,-19.20511 20.99164,-19.20511 11.59336,0 20.99163,8.59842 20.99163,19.20511 z"
         id="path3065" />
    </g>
  </g>
</svg>
